<?xml version="1.0" encoding="UTF-8" standalone="no"?>
<!-- Generator: Adobe Illustrator 16.0.0, SVG Export Plug-In . SVG Version: 6.00 Build 0)  -->

<svg
   xmlns:dc="http://purl.org/dc/elements/1.1/"
   xmlns:cc="http://creativecommons.org/ns#"
   xmlns:rdf="http://www.w3.org/1999/02/22-rdf-syntax-ns#"
   xmlns:svg="http://www.w3.org/2000/svg"
   xmlns="http://www.w3.org/2000/svg"
   xmlns:sodipodi="http://sodipodi.sourceforge.net/DTD/sodipodi-0.dtd"
   xmlns:inkscape="http://www.inkscape.org/namespaces/inkscape"
   version="1.1"
   id="Layer_1"
   x="0px"
   y="0px"
   width="29.174999"
   height="29.17"
   viewBox="0 0 29.175 29.17"
   xml:space="preserve"
   inkscape:version="0.48.4 r9939"
   sodipodi:docname="swimming.svg"><metadata
     id="metadata3254"><rdf:RDF><cc:Work
         rdf:about=""><dc:format>image/svg+xml</dc:format><dc:type
           rdf:resource="http://purl.org/dc/dcmitype/StillImage" /></cc:Work></rdf:RDF></metadata><defs
     id="defs3252" /><sodipodi:namedview
     pagecolor="#ffffff"
     bordercolor="#666666"
     borderopacity="1"
     objecttolerance="10"
     gridtolerance="10"
     guidetolerance="10"
     inkscape:pageopacity="0"
     inkscape:pageshadow="2"
     inkscape:window-width="1280"
     inkscape:window-height="750"
     id="namedview3250"
     showgrid="false"
     inkscape:zoom="13.341867"
     inkscape:cx="14.5875"
     inkscape:cy="18.174289"
     inkscape:window-x="0"
     inkscape:window-y="0"
     inkscape:window-maximized="1"
     inkscape:current-layer="Layer_1" /><g
     id="g3208"
     transform="translate(0,4.7080955)"><path
       d="m 5.186,11.387 c 1.854,-0.889 3.058,-1.365 4.378,-0.045 1.97,1.971 3.979,0.929 5.593,0.091 1.789,-0.927 2.953,-1.427 4.289,-0.091 0.945,0.945 1.87,1.27 2.74,1.27 1.13,0 2.164,-0.55 3.02,-1.007 1.423,-0.758 2.207,-1.114 3.057,-0.263 L 29.175,10.43 C 27.61,8.865 25.94,9.753 24.599,10.468 22.899,11.373 21.786,11.857 20.359,10.43 18.286,8.358 16.222,9.428 14.564,10.288 12.784,11.21 11.719,11.67 10.477,10.43 8.442,8.396 6.329,9.41 4.629,10.224 2.934,11.036 1.926,11.444 0.912,10.43 L 0,11.342 c 1.71,1.71 3.638,0.786 5.186,0.045 z"
       id="path3210"
       inkscape:connector-curvature="0" /><path
       d="m 24.599,14.219 c -1.7,0.906 -2.813,1.39 -4.24,-0.037 -2.073,-2.072 -4.137,-1.002 -5.795,-0.143 -1.78,0.923 -2.845,1.383 -4.087,0.143 C 8.443,12.148 6.33,13.161 4.63,13.976 2.935,14.788 1.927,15.197 0.913,14.182 L 0,15.095 c 1.71,1.709 3.638,0.786 5.186,0.045 1.854,-0.889 3.058,-1.367 4.378,-0.045 1.97,1.97 3.979,0.927 5.593,0.09 1.789,-0.926 2.953,-1.427 4.289,-0.09 0.945,0.944 1.87,1.27 2.74,1.27 1.13,0 2.164,-0.551 3.02,-1.007 1.423,-0.758 2.207,-1.115 3.057,-0.263 l 0.912,-0.912 C 27.61,12.617 25.94,13.505 24.599,14.219 z"
       id="path3212"
       inkscape:connector-curvature="0" /><path
       d="m 24.599,18.167 c -1.7,0.905 -2.813,1.389 -4.24,-0.037 -2.073,-2.072 -4.137,-1.001 -5.795,-0.143 -1.78,0.922 -2.845,1.384 -4.087,0.143 C 8.443,16.096 6.33,17.11 4.63,17.923 2.935,18.735 1.927,19.144 0.913,18.13 L 0,19.041 c 1.71,1.71 3.638,0.787 5.186,0.045 1.854,-0.889 3.058,-1.366 4.378,-0.045 1.97,1.971 3.979,0.928 5.593,0.091 1.789,-0.926 2.953,-1.428 4.289,-0.091 0.945,0.945 1.87,1.271 2.74,1.271 1.13,0 2.164,-0.552 3.02,-1.007 1.423,-0.759 2.207,-1.115 3.057,-0.264 l 0.912,-0.912 C 27.61,16.564 25.94,17.451 24.599,18.167 z"
       id="path3214"
       inkscape:connector-curvature="0" /><circle
       cx="22.702"
       cy="3.224"
       r="3.224"
       id="circle3216"
       sodipodi:cx="22.702"
       sodipodi:cy="3.224"
       sodipodi:rx="3.224"
       sodipodi:ry="3.224"
       d="m 25.926,3.224 c 0,1.780566 -1.443434,3.224 -3.224,3.224 -1.780566,0 -3.224,-1.443434 -3.224,-3.224 0,-1.780566 1.443434,-3.224 3.224,-3.224 1.780566,0 3.224,1.443434 3.224,3.224 z" /><path
       d="m 12.32,4.158 3.934,2.29 c 0,0 -4.954,2.286 -5.535,2.868 0.942,2.475 3.815,-1.255 7.523,-0.933 2.257,0.161 3.654,1.787 3.654,1.787 L 21.627,7.469 18.564,4.676 11.955,1.13 7.199,5.481 9.187,6.502 12.32,4.158 z"
       id="path3218"
       inkscape:connector-curvature="0" /></g><g
     id="g3220"
     transform="translate(0,4.7080955)" /><g
     id="g3222"
     transform="translate(0,4.7080955)" /><g
     id="g3224"
     transform="translate(0,4.7080955)" /><g
     id="g3226"
     transform="translate(0,4.7080955)" /><g
     id="g3228"
     transform="translate(0,4.7080955)" /><g
     id="g3230"
     transform="translate(0,4.7080955)" /><g
     id="g3232"
     transform="translate(0,4.7080955)" /><g
     id="g3234"
     transform="translate(0,4.7080955)" /><g
     id="g3236"
     transform="translate(0,4.7080955)" /><g
     id="g3238"
     transform="translate(0,4.7080955)" /><g
     id="g3240"
     transform="translate(0,4.7080955)" /><g
     id="g3242"
     transform="translate(0,4.7080955)" /><g
     id="g3244"
     transform="translate(0,4.7080955)" /><g
     id="g3246"
     transform="translate(0,4.7080955)" /><g
     id="g3248"
     transform="translate(0,4.7080955)" /></svg>